<svg width="135" height="112" viewBox="0 0 135 112" fill="none" xmlns="http://www.w3.org/2000/svg">
<path d="M54.7821 99.2048L16.2699 70.77C5.42329 62.7616 3.97884 53.3685 11.9365 42.5905L34.5931 11.9043L42.5895 9.6938L47.9442 13.6473L21.4861 49.4822C18.5971 53.3952 19.0747 56.7709 22.919 59.6093L63.4908 89.5647C67.3351 92.4031 70.7019 91.8658 73.5909 87.9528L93.8906 60.4588L71.0304 43.5804L58.9418 59.9532L49.4682 52.9586L69.2357 26.1853L111.043 57.053L82.9885 95.0504C75.0308 105.828 65.6287 107.213 54.7821 99.2048Z" fill="white"/>
<path d="M80.2667 12.2713L118.319 41.3186C129.036 49.4995 130.33 58.9146 122.201 69.5638L99.0563 99.8836L91.0256 101.966L85.7349 97.9272L112.763 62.5202C115.714 58.654 115.291 55.271 111.492 52.3715L71.4049 21.7708C67.6065 18.8713 64.2316 19.3546 61.2802 23.2209L40.5433 50.3867L63.1305 67.6286L75.4795 51.4513L84.84 58.5966L64.6466 85.0501L23.3385 53.5175L51.9974 15.9739C60.1265 5.32462 69.5496 4.09045 80.2667 12.2713Z" fill="white"/>
</svg>
