<svg width="21" height="20" viewBox="0 0 21 20" fill="none" xmlns="http://www.w3.org/2000/svg">
<path d="M11.001 2.4734C12.1436 1.4506 13.6345 0.904268 15.1674 0.946673C16.7003 0.989077 18.1587 1.617 19.243 2.7014C20.3264 3.78459 20.9543 5.24114 20.9982 6.77249C21.0421 8.30383 20.4986 9.79395 19.479 10.9374L10.999 19.4294L2.52102 10.9374C1.50028 9.79336 0.956225 8.30196 1.00056 6.76938C1.04489 5.23681 1.67425 3.77935 2.75942 2.69623C3.84459 1.61311 5.30323 0.986504 6.83589 0.945065C8.36854 0.903626 9.85891 1.4505 11.001 2.4734ZM17.827 4.1144C17.1046 3.39252 16.1333 2.97448 15.1125 2.94603C14.0916 2.91758 13.0985 3.28088 12.337 3.9614L11.002 5.1594L9.66602 3.9624C8.90406 3.28106 7.91013 2.91737 6.88837 2.94601C5.86662 2.97465 4.89462 3.39345 4.17202 4.1164C3.45628 4.8321 3.03848 5.79254 3.00285 6.8041C2.96722 7.81566 3.31641 8.80311 3.98002 9.5674L11 16.5984L18.02 9.5684C18.6844 8.8038 19.0339 7.81564 18.9981 6.80337C18.9623 5.7911 18.5438 4.83012 17.827 4.1144Z" fill="black"/>
</svg>
