<svg width="36" height="32" viewBox="0 0 36 32" fill="none" xmlns="http://www.w3.org/2000/svg">
<path d="M31.5 26.25C31.5 26.5981 31.342 26.9319 31.0607 27.1781C30.7794 27.4242 30.3978 27.5625 30 27.5625H6C5.60218 27.5625 5.22064 27.4242 4.93934 27.1781C4.65804 26.9319 4.5 26.5981 4.5 26.25V12.4556C4.49984 12.2556 4.55193 12.0582 4.65227 11.8785C4.75262 11.6988 4.89858 11.5415 5.079 11.4187L17.079 3.25237C17.3423 3.07314 17.6664 2.97583 18 2.97583C18.3336 2.97583 18.6577 3.07314 18.921 3.25237L30.921 11.4187C31.1014 11.5415 31.2474 11.6988 31.3477 11.8785C31.4481 12.0582 31.5002 12.2556 31.5 12.4556V26.25ZM28.5 24.9375V13.0961L18 5.95087L7.5 13.0961V24.9375H28.5ZM10.5 19.6875H25.5V22.3125H10.5V19.6875Z" fill="white"/>
</svg>
