<svg width="100" height="100" viewBox="0 0 100 100" fill="none" xmlns="http://www.w3.org/2000/svg">
<path d="M16.6667 75H25.0001V83.3333H75.0001V16.6667H25.0001V25H16.6667V12.5C16.6667 11.3949 17.1057 10.3351 17.8871 9.55373C18.6685 8.77233 19.7283 8.33334 20.8334 8.33334H79.1667C80.2718 8.33334 81.3316 8.77233 82.113 9.55373C82.8944 10.3351 83.3334 11.3949 83.3334 12.5V87.5C83.3334 88.6051 82.8944 89.6649 82.113 90.4463C81.3316 91.2277 80.2718 91.6667 79.1667 91.6667H20.8334C19.7283 91.6667 18.6685 91.2277 17.8871 90.4463C17.1057 89.6649 16.6667 88.6051 16.6667 87.5V75ZM25.0001 45.8333H54.1667V54.1667H25.0001V66.6667L4.16675 50L25.0001 33.3333V45.8333Z" fill="black"/>
</svg>
