<svg width="36" height="30" viewBox="0 0 36 30" fill="none" xmlns="http://www.w3.org/2000/svg">
<path d="M14.6744 26.5737L4.35818 18.957C1.45273 16.8118 1.0658 14.2957 3.19741 11.4086L9.26638 3.18875L11.4084 2.59663L12.8427 3.65564L5.75545 13.2547C4.98155 14.3028 5.10949 15.2071 6.13927 15.9674L17.0071 23.9915C18.0369 24.7518 18.9387 24.6079 19.7126 23.5597L25.1503 16.1949L19.0268 11.6737L15.7886 16.0595L13.2509 14.1859L18.546 7.01418L29.7449 15.2826L22.2299 25.4609C20.0983 28.348 17.5798 28.7189 14.6744 26.5737Z" fill="white"/>
<path d="M21.5009 3.28705L31.6939 11.0679C34.5646 13.2593 34.9112 15.7813 32.7337 18.6339L26.534 26.7556L24.3828 27.3133L22.9656 26.2315L30.2055 16.7471C30.9961 15.7115 30.8826 14.8053 29.8652 14.0286L19.1271 5.83166C18.1096 5.05496 17.2056 5.18444 16.415 6.2201L10.8602 13.4969L16.9106 18.1155L20.2185 13.7821L22.7259 15.6961L17.3168 22.7821L6.25162 14.3356L13.9284 4.27884C16.106 1.42625 18.6301 1.09565 21.5009 3.28705Z" fill="white"/>
</svg>
