<svg width="24" height="25" viewBox="0 0 24 25" fill="none" xmlns="http://www.w3.org/2000/svg">
<path d="M12.001 5.4734C13.1436 4.4506 14.6345 3.90427 16.1674 3.94667C17.7003 3.98908 19.1587 4.617 20.243 5.7014C21.3263 6.78459 21.9543 8.24114 21.9982 9.77249C22.0421 11.3038 21.4985 12.794 20.479 13.9374L11.999 22.4294L3.52099 13.9374C2.50025 12.7934 1.95619 11.302 2.00053 9.76938C2.04486 8.23681 2.67422 6.77935 3.75939 5.69623C4.84456 4.61311 6.3032 3.9865 7.83586 3.94507C9.36851 3.90363 10.8589 4.4505 12.001 5.4734ZM18.827 7.1144C18.1046 6.39252 17.1333 5.97448 16.1124 5.94603C15.0915 5.91758 14.0985 6.28088 13.337 6.9614L12.002 8.1594L10.666 6.9624C9.90403 6.28106 8.9101 5.91737 7.88834 5.94601C6.86659 5.97465 5.89459 6.39345 5.17199 7.1164C4.45625 7.8321 4.03845 8.79254 4.00282 9.8041C3.96719 10.8157 4.31638 11.8031 4.97999 12.5674L12 19.5984L19.02 12.5684C19.6843 11.8038 20.0339 10.8156 19.9981 9.80337C19.9622 8.7911 19.5437 7.83012 18.827 7.1144Z" fill="black"/>
</svg>
