<svg width="36" height="36" viewBox="0 0 36 36" fill="none" xmlns="http://www.w3.org/2000/svg">
<path d="M28.9265 27.3235C29.1378 27.5367 29.2563 27.8248 29.2563 28.125C29.2563 28.4252 29.1378 28.7133 28.9265 28.9266C28.7115 29.1345 28.4241 29.2507 28.125 29.2507C27.8259 29.2507 27.5385 29.1345 27.3234 28.9266L18 19.5891L8.67654 28.9266C8.46151 29.1345 8.1741 29.2507 7.87498 29.2507C7.57586 29.2507 7.28845 29.1345 7.07342 28.9266C6.86216 28.7133 6.74365 28.4252 6.74365 28.125C6.74365 27.8248 6.86216 27.5367 7.07342 27.3235L16.4109 18L7.07342 8.67658C6.89402 8.458 6.80234 8.1805 6.81622 7.89807C6.83009 7.61563 6.94852 7.34846 7.14847 7.1485C7.34842 6.94855 7.6156 6.83012 7.89803 6.81625C8.18046 6.80238 8.45796 6.89406 8.67654 7.07346L18 16.411L27.3234 7.07346C27.542 6.89406 27.8195 6.80238 28.1019 6.81625C28.3844 6.83012 28.6515 6.94855 28.8515 7.1485C29.0514 7.34846 29.1699 7.61563 29.1837 7.89807C29.1976 8.1805 29.1059 8.458 28.9265 8.67658L19.589 18L28.9265 27.3235Z" fill="#2F2F2F"/>
</svg>
