<svg width="36" height="32" viewBox="0 0 36 32" fill="none" xmlns="http://www.w3.org/2000/svg">
<path d="M18 28.875C9.7155 28.875 3 22.9989 3 15.75C3 8.50106 9.7155 2.625 18 2.625C26.2845 2.625 33 8.50106 33 15.75C33 22.9989 26.2845 28.875 18 28.875ZM10.5195 23.961C12.6428 25.4464 15.2815 26.2538 18 26.25C20.8385 26.2536 23.5858 25.3733 25.7505 23.7667C24.7736 22.8897 23.6056 22.1929 22.3156 21.7177C21.0255 21.2425 19.6397 20.9984 18.24 21C16.7889 20.9985 15.3533 21.261 14.0242 21.7707C12.6951 22.2804 11.5017 23.0263 10.5195 23.961ZM8.424 22.0762C9.68468 20.9056 11.206 19.9732 12.8942 19.3367C14.5824 18.7001 16.4017 18.3728 18.24 18.375C20.0125 18.373 21.7679 18.6773 23.4056 19.2706C25.0433 19.8639 26.5309 20.7344 27.783 21.8321C29.0671 20.2507 29.8254 18.389 29.9738 16.4534C30.1222 14.5178 29.6549 12.5841 28.6237 10.8668C27.5925 9.14947 26.0378 7.71569 24.1319 6.72452C22.2261 5.73335 20.0437 5.22354 17.8269 5.25164C15.6101 5.27975 13.4455 5.84467 11.5733 6.88374C9.70107 7.92281 8.19444 9.3954 7.22054 11.1381C6.24664 12.8809 5.84354 14.8256 6.05597 16.7566C6.26841 18.6876 7.08806 20.5294 8.424 22.0776V22.0762ZM18 17.0625C16.4087 17.0625 14.8826 16.5094 13.7574 15.5248C12.6321 14.5402 12 13.2049 12 11.8125C12 10.4201 12.6321 9.08475 13.7574 8.10019C14.8826 7.11562 16.4087 6.5625 18 6.5625C19.5913 6.5625 21.1174 7.11562 22.2426 8.10019C23.3679 9.08475 24 10.4201 24 11.8125C24 13.2049 23.3679 14.5402 22.2426 15.5248C21.1174 16.5094 19.5913 17.0625 18 17.0625ZM18 14.4375C18.7956 14.4375 19.5587 14.1609 20.1213 13.6687C20.6839 13.1764 21 12.5087 21 11.8125C21 11.1163 20.6839 10.4486 20.1213 9.95634C19.5587 9.46406 18.7956 9.1875 18 9.1875C17.2043 9.1875 16.4413 9.46406 15.8787 9.95634C15.3161 10.4486 15 11.1163 15 11.8125C15 12.5087 15.3161 13.1764 15.8787 13.6687C16.4413 14.1609 17.2043 14.4375 18 14.4375Z" fill="#2F2F2F"/>
</svg>
