<svg width="48" height="48" viewBox="0 0 48 48" fill="none" xmlns="http://www.w3.org/2000/svg">
<path d="M30.9398 29.2693L36 34.3282L34.3282 36L29.2693 30.9398C27.3869 32.4488 25.0456 33.2696 22.6331 33.2661C16.7636 33.2661 12 28.5025 12 22.6331C12 16.7636 16.7636 12 22.6331 12C28.5025 12 33.2661 16.7636 33.2661 22.6331C33.2696 25.0456 32.4488 27.3869 30.9398 29.2693ZM28.5699 28.3926C30.0692 26.8507 30.9066 24.7838 30.9032 22.6331C30.9032 18.0632 27.2017 14.3629 22.6331 14.3629C18.0632 14.3629 14.3629 18.0632 14.3629 22.6331C14.3629 27.2017 18.0632 30.9032 22.6331 30.9032C24.7838 30.9066 26.8507 30.0692 28.3926 28.5699L28.5699 28.3926V28.3926Z" fill="white"/>
</svg>
