<svg width="48" height="48" viewBox="0 0 48 48" fill="none" xmlns="http://www.w3.org/2000/svg">
<path d="M17.3333 20V17.7143C17.3333 16.1988 18.0357 14.7453 19.286 13.6737C20.5362 12.602 22.2319 12 24 12C25.7681 12 27.4638 12.602 28.714 13.6737C29.9643 14.7453 30.6667 16.1988 30.6667 17.7143V20H34.6667C35.0203 20 35.3594 20.1204 35.6095 20.3347C35.8595 20.5491 36 20.8398 36 21.1429V34.8571C36 35.1602 35.8595 35.4509 35.6095 35.6653C35.3594 35.8796 35.0203 36 34.6667 36H13.3333C12.9797 36 12.6406 35.8796 12.3905 35.6653C12.1405 35.4509 12 35.1602 12 34.8571V21.1429C12 20.8398 12.1405 20.5491 12.3905 20.3347C12.6406 20.1204 12.9797 20 13.3333 20H17.3333ZM17.3333 22.2857H14.6667V33.7143H33.3333V22.2857H30.6667V24.5714H28V22.2857H20V24.5714H17.3333V22.2857ZM20 20H28V17.7143C28 16.805 27.5786 15.9329 26.8284 15.2899C26.0783 14.6469 25.0609 14.2857 24 14.2857C22.9391 14.2857 21.9217 14.6469 21.1716 15.2899C20.4214 15.9329 20 16.805 20 17.7143V20Z" fill="white"/>
</svg>
