<svg width="36" height="32" viewBox="0 0 36 32" fill="none" xmlns="http://www.w3.org/2000/svg">
<path d="M18.0015 5.94436C19.7154 4.60194 21.9517 3.88488 24.2511 3.94054C26.5504 3.99619 28.7381 4.82034 30.3645 6.24361C31.9895 7.6653 32.9315 9.57703 32.9973 11.5869C33.0631 13.5968 32.2478 15.5526 30.7185 17.0534L17.9985 28.1991L5.2815 17.0534C3.75039 15.5518 2.93431 13.5943 3.00081 11.5828C3.06731 9.57134 4.01134 7.65843 5.63909 6.23683C7.26685 4.81523 9.45482 3.99281 11.7538 3.93843C14.0528 3.88404 16.2883 4.6018 18.0015 5.94436ZM28.2405 8.09818C27.1569 7.15072 25.7 6.60203 24.1686 6.56469C22.6373 6.52735 21.1478 7.00418 20.0055 7.89736L18.003 9.46974L15.999 7.89868C14.8561 7.00443 13.3652 6.52707 11.8325 6.56466C10.2999 6.60225 8.8419 7.15193 7.758 8.1008C6.68439 9.04016 6.05769 10.3007 6.00425 11.6284C5.9508 12.9561 6.47458 14.2521 7.47 15.2552L18 24.4834L28.53 15.2566C29.5265 14.253 30.0509 12.9561 29.9971 11.6275C29.9434 10.2989 29.3156 9.03756 28.2405 8.09818Z" fill="#2F2F2F"/>
</svg>
